<?xml version="1.0" encoding="UTF-8"?>
<svg version="1.1" xmlns="http://www.w3.org/2000/svg" width="481" height="71">
<path d="M0 0 C158.73 0 317.46 0 481 0 C481 23.43 481 46.86 481 71 C322.27 71 163.54 71 0 71 C0 47.57 0 24.14 0 0 Z " fill="#010101" transform="translate(0,0)"/>
<path d="M0 0 C2.31 0 4.62 0 7 0 C7.07595711 6.92334988 7.12856051 13.84659263 7.16479492 20.77026367 C7.17989747 23.12642431 7.20038091 25.48255677 7.22631836 27.83862305 C7.26263656 31.22191312 7.27971167 34.60483208 7.29296875 37.98828125 C7.30845261 39.04461258 7.32393646 40.10094391 7.33988953 41.18928528 C7.34011612 42.17007553 7.34034271 43.15086578 7.34057617 44.16137695 C7.34723801 45.02519485 7.35389984 45.88901276 7.36076355 46.77900696 C7 49 7 49 5.71846008 50.7775116 C2.71951405 52.91091975 -0.83317355 52.42884533 -4.375 52.375 C-5.13039063 52.38660156 -5.88578125 52.39820313 -6.6640625 52.41015625 C-11.2714303 52.38599173 -14.29542934 51.99066902 -18 49 C-20.3515625 46.44140625 -20.3515625 46.44140625 -22.625 43.5625 C-23.38039063 42.61503906 -24.13578125 41.66757812 -24.9140625 40.69140625 C-25.60242188 39.80324219 -26.29078125 38.91507813 -27 38 C-27.87785156 36.99259766 -27.87785156 36.99259766 -28.7734375 35.96484375 C-30.45021409 33.27879717 -30.64854252 32.12396539 -30 29 C-28.28193152 26.51176289 -26.23979851 24.40351336 -24.125 22.25 C-23.56941406 21.66089844 -23.01382812 21.07179688 -22.44140625 20.46484375 C-17.25957615 15.0332869 -17.25957615 15.0332869 -12.3046875 14.90234375 C-10.82809348 14.90899507 -9.35151596 14.92092426 -7.875 14.9375 C-7.12089844 14.94201172 -6.36679687 14.94652344 -5.58984375 14.95117188 C-3.72652873 14.96296501 -1.86325445 14.98090058 0 15 C0 10.05 0 5.1 0 0 Z " fill="#FBFBFB" transform="translate(369,1)"/>
<path d="M0 0 C1.1456543 -0.00483398 1.1456543 -0.00483398 2.31445312 -0.00976562 C9.56540716 0.05965169 9.56540716 0.05965169 12.5625 2.3125 C14.78125 4.73828125 14.78125 4.73828125 17.0625 7.625 C17.8153125 8.56988281 18.568125 9.51476563 19.34375 10.48828125 C20.0759375 11.42027344 20.808125 12.35226563 21.5625 13.3125 C22.3153125 14.15167969 23.068125 14.99085937 23.84375 15.85546875 C25.5625 18.3125 25.5625 18.3125 26.15234375 20.66796875 C24.76347735 26.89487309 19.38423664 31.99697118 14.64355469 36.01904297 C8.972114 39.54406558 1.85973634 38.26274165 -4.4375 37.3125 C-4.4375 41.9325 -4.4375 46.5525 -4.4375 51.3125 C-6.7475 51.3125 -9.0575 51.3125 -11.4375 51.3125 C-11.51346188 44.531567 -11.5660625 37.7507434 -11.60229492 30.96948242 C-11.61739676 28.66182352 -11.63787969 26.35419339 -11.66381836 24.04663086 C-11.70013975 20.73283801 -11.71721236 17.41942408 -11.73046875 14.10546875 C-11.74595261 13.0710112 -11.76143646 12.03655365 -11.77738953 10.9707489 C-11.77761612 10.0099794 -11.77784271 9.0492099 -11.77807617 8.05932617 C-11.78473801 7.21327316 -11.79139984 6.36722015 -11.79826355 5.49552917 C-11.4375 3.3125 -11.4375 3.3125 -10.15815735 1.53852844 C-7.14857125 -0.60590674 -3.55474267 -0.07461676 0 0 Z " fill="#FCFCFC" transform="translate(55.4375,15.6875)"/>
<path d="M0 0 C1.10472656 -0.00386719 2.20945312 -0.00773438 3.34765625 -0.01171875 C4.50136719 -0.00011719 5.65507812 0.01148438 6.84375 0.0234375 C8.57431641 0.00603516 8.57431641 0.00603516 10.33984375 -0.01171875 C11.44457031 -0.00785156 12.54929687 -0.00398437 13.6875 0 C14.70005859 0.00338379 15.71261719 0.00676758 16.75585938 0.01025391 C19.34375 0.3984375 19.34375 0.3984375 21.17016602 1.63110352 C23.530478 5.18556544 22.81207579 9.5830842 22.78125 13.7109375 C22.8112207 15.11762695 22.8112207 15.11762695 22.84179688 16.55273438 C22.83768718 22.38439698 22.23935367 25.78945578 18.34375 30.3984375 C17.82296875 31.09710938 17.3021875 31.79578125 16.765625 32.515625 C12.89494043 36.58526999 9.7134971 37.82350921 4.21386719 38.02392578 C-4.6941153 38.02193294 -4.6941153 38.02193294 -7.35083008 36.30029297 C-9.34111542 33.40066274 -9.04536407 30.91220923 -9.0546875 27.4296875 C-9.05755768 26.75296997 -9.06042786 26.07625244 -9.06338501 25.37902832 C-9.06542397 23.95010541 -9.05990569 22.52115448 -9.04736328 21.09228516 C-9.03130511 18.90594025 -9.04721534 16.72144371 -9.06640625 14.53515625 C-9.06442379 13.14582926 -9.06058004 11.75650341 -9.0546875 10.3671875 C-9.05130371 9.10326172 -9.04791992 7.83933594 -9.04443359 6.53710938 C-8.65625 3.3984375 -8.65625 3.3984375 -7.48486328 1.48779297 C-4.92167829 -0.03916717 -2.9743627 0.00993979 0 0 Z " fill="#FCFCFC" transform="translate(276.65625,15.6015625)"/>
<path d="M0 0 C1.16499023 -0.0309375 1.16499023 -0.0309375 2.35351562 -0.0625 C8.07744553 -0.10194138 8.07744553 -0.10194138 10.28393555 1.49902344 C11.87790633 3.68194466 11.94899887 4.90812572 11.9609375 7.59375 C11.96673828 8.84478516 11.96673828 8.84478516 11.97265625 10.12109375 C11.96105469 10.98863281 11.94945312 11.85617188 11.9375 12.75 C11.94910156 13.61753906 11.96070313 14.48507813 11.97265625 15.37890625 C11.96878906 16.21292969 11.96492188 17.04695313 11.9609375 17.90625 C11.95755371 18.66744141 11.95416992 19.42863281 11.95068359 20.21289062 C11.45248381 22.82734282 10.71512238 23.7070607 8.5625 25.25 C6.56958008 25.59057617 6.56958008 25.59057617 4.33203125 25.54296875 C3.52958984 25.53330078 2.72714844 25.52363281 1.90039062 25.51367188 C0.65032227 25.4759668 0.65032227 25.4759668 -0.625 25.4375 C-1.8924707 25.41719727 -1.8924707 25.41719727 -3.18554688 25.39648438 C-5.26980384 25.36115799 -7.35373277 25.30735139 -9.4375 25.25 C-8.15402404 22.38686131 -6.96481665 20.16176412 -4.4375 18.25 C-2.17578125 17.95703125 -2.17578125 17.95703125 0.25 18.0625 C1.673125 18.124375 3.09625 18.18625 4.5625 18.25 C4.5625 14.62 4.5625 10.99 4.5625 7.25 C-3.55989987 6.79752853 -3.55989987 6.79752853 -10.23828125 10.765625 C-12.45168423 13.51914067 -14.507654 16.29187747 -16.4375 19.25 C-14.82091174 23.0710268 -12.72511236 26.66939023 -9.4375 29.25 C-6.49320921 30.09451439 -3.67433789 30.1352241 -0.625 30.125 C0.16326172 30.145625 0.95152344 30.16625 1.76367188 30.1875 C3.69615908 30.23434817 5.62944972 30.24573749 7.5625 30.25 C6.27028654 33.13263003 5.16097488 35.39872605 2.5625 37.25 C-3.54012273 38.39149778 -9.92910819 38.87064821 -15.28515625 35.41015625 C-17.54941674 33.13833562 -19.50423853 30.80605711 -21.4375 28.25 C-22.736875 26.950625 -22.736875 26.950625 -24.0625 25.625 C-26.0761585 22.14686259 -25.35945782 20.10435229 -24.4375 16.25 C-22.29296875 13.30078125 -22.29296875 13.30078125 -19.625 10.5625 C-18.75230469 9.65113281 -17.87960938 8.73976563 -16.98046875 7.80078125 C-16.14128906 6.95902344 -15.30210938 6.11726563 -14.4375 5.25 C-13.71175781 4.50105469 -12.98601562 3.75210937 -12.23828125 2.98046875 C-8.6039748 -0.51193419 -4.77456755 0.03154132 0 0 Z " fill="#FCFCFC" transform="translate(107.4375,15.75)"/>
<path d="M0 0 C0.82435547 -0.020625 1.64871094 -0.04125 2.49804688 -0.0625 C3.29146484 -0.06765625 4.08488281 -0.0728125 4.90234375 -0.078125 C5.99083618 -0.09214355 5.99083618 -0.09214355 7.10131836 -0.10644531 C9.0625 0.25 9.0625 0.25 10.80419922 1.28735352 C12.76071199 4.33904272 12.42998793 7.47574061 12.35546875 10.98046875 C12.35122391 11.73088943 12.34697906 12.48131012 12.34260559 13.25447083 C12.3258245 15.64918026 12.2881749 18.04304534 12.25 20.4375 C12.23495235 22.0618368 12.22126409 23.6861868 12.20898438 25.31054688 C12.17592305 29.29068948 12.12414594 33.27020163 12.0625 37.25 C9.7525 37.25 7.4425 37.25 5.0625 37.25 C5.0625 27.35 5.0625 17.45 5.0625 7.25 C-6.03537751 7.05449267 -6.03537751 7.05449267 -10.078125 10.75390625 C-10.77421875 11.76324219 -11.4703125 12.77257812 -12.1875 13.8125 C-12.91453125 14.82441406 -13.6415625 15.83632813 -14.390625 16.87890625 C-14.90109375 17.66136719 -15.4115625 18.44382812 -15.9375 19.25 C-13.9128688 23.75896128 -11.16998048 26.68990413 -6.9375 29.25 C-3.92351792 29.99153527 -1.03615988 30.23594712 2.0625 30.25 C-0.56346816 35.61273666 -0.56346816 35.61273666 -2.9375 37.25 C-5.99863731 37.99966628 -7.03318053 38.19823863 -9.9375 37.25 C-12.69009049 35.19862323 -15.10181537 32.96317173 -17.55859375 30.56640625 C-19.49338698 28.68244503 -21.39589171 27.09294368 -23.5625 25.5 C-25.9375 23.25 -25.9375 23.25 -26.34375 20.9140625 C-25.79692577 17.32815744 -24.31876868 15.96398382 -21.8125 13.375 C-20.58466797 12.08142578 -20.58466797 12.08142578 -19.33203125 10.76171875 C-18.54183594 9.93285156 -17.75164063 9.10398437 -16.9375 8.25 C-15.78126926 6.90470008 -14.63368149 5.55185614 -13.5 4.1875 C-9.31312152 -0.61209241 -6.01590723 0.03745312 0 0 Z " fill="#FCFCFC" transform="translate(27.9375,15.75)"/>
<path d="M0 0 C2.31 0 4.62 0 7 0 C7 9.9 7 19.8 7 30 C17.8583876 29.93041972 17.8583876 29.93041972 22.19921875 27.20703125 C25.00610634 22.20821409 24.78282458 17.32912653 24.8125 11.6875 C24.83763672 10.56537109 24.86277344 9.44324219 24.88867188 8.28710938 C24.9474532 5.52438714 24.9837998 2.76324608 25 0 C27.31 0 29.62 0 32 0 C32.08732726 3.89569135 32.14050185 7.79112982 32.1875 11.6875 C32.21263672 12.79029297 32.23777344 13.89308594 32.26367188 15.02929688 C32.27333984 16.09599609 32.28300781 17.16269531 32.29296875 18.26171875 C32.3086792 19.24100342 32.32438965 20.22028809 32.34057617 21.22924805 C31.76336227 25.92516247 28.99463473 29.22506537 26 32.75 C25.505 33.34296875 25.01 33.9359375 24.5 34.546875 C20.98495652 37.95207338 16.07433945 37.21945349 11.5 37.25 C10.72785156 37.270625 9.95570313 37.29125 9.16015625 37.3125 C3.58421106 37.35115473 3.58421106 37.35115473 1.27416992 35.96264648 C-0.70425789 32.91520805 -0.36761621 29.78029247 -0.29296875 26.26953125 C-0.28872391 25.51911057 -0.28447906 24.76868988 -0.28010559 23.99552917 C-0.2633245 21.60081974 -0.2256749 19.20695466 -0.1875 16.8125 C-0.17245235 15.1881632 -0.15876409 13.5638132 -0.14648438 11.93945312 C-0.11342305 7.95931052 -0.06164594 3.97979837 0 0 Z " fill="#FCFCFC" transform="translate(304,16)"/>
<path d="M0 0 C0.01417969 0.73605469 0.02835938 1.47210937 0.04296875 2.23046875 C0.27403887 6.95803841 0.45280054 10.15432811 3.0625 14.1875 C6.33698491 16.20792686 8.27421398 16.75875657 12.06640625 16.46484375 C15.73986077 15.58173044 16.9686467 14.13936419 19 11 C19.69025526 7.33237503 19.92819201 3.72748736 20 0 C25.36273666 2.62596816 25.36273666 2.62596816 27 5 C27.78722881 12.08505928 25.17715759 15.62936881 21 21 C22.2065625 22.423125 22.2065625 22.423125 23.4375 23.875 C26.94326952 28.0100102 27.1016892 30.508783 27 36 C24.69 36 22.38 36 20 36 C19.7525 34.9275 19.505 33.855 19.25 32.75 C17.9615474 28.88464221 17.37791962 27.22231554 14 25 C9.0200612 24.28858017 7.1568922 24.16309926 3.0625 27.125 C0.83809846 30.22568093 0.26298363 32.2305679 0 36 C-2.31 36 -4.62 36 -7 36 C-7.46044133 30.24448332 -6.51324893 27.54655744 -3 23 C-2.34 22.01 -1.68 21.02 -1 20 C-1.804375 19.236875 -2.60875 18.47375 -3.4375 17.6875 C-6.45239033 14.52554184 -6.89788019 12.91907825 -7.375 8.625 C-7 5 -7 5 -4.625 2.0625 C-2 0 -2 0 0 0 Z " fill="#FCFCFC" transform="translate(170,17)"/>
<path d="M0 0 C0.01417969 0.73605469 0.02835938 1.47210937 0.04296875 2.23046875 C0.27403887 6.95803841 0.45280054 10.15432811 3.0625 14.1875 C6.33698491 16.20792686 8.27421398 16.75875657 12.06640625 16.46484375 C15.73986077 15.58173044 16.9686467 14.13936419 19 11 C19.69025526 7.33237503 19.92819201 3.72748736 20 0 C25.36273666 2.62596816 25.36273666 2.62596816 27 5 C27.78722881 12.08505928 25.17715759 15.62936881 21 21 C22.2065625 22.423125 22.2065625 22.423125 23.4375 23.875 C26.94326952 28.0100102 27.1016892 30.508783 27 36 C24.69 36 22.38 36 20 36 C19.7525 34.9275 19.505 33.855 19.25 32.75 C17.9615474 28.88464221 17.37791962 27.22231554 14 25 C9.0200612 24.28858017 7.1568922 24.16309926 3.0625 27.125 C0.83809846 30.22568093 0.26298363 32.2305679 0 36 C-2.31 36 -4.62 36 -7 36 C-7.46044133 30.24448332 -6.51324893 27.54655744 -3 23 C-2.34 22.01 -1.68 21.02 -1 20 C-1.804375 19.236875 -2.60875 18.47375 -3.4375 17.6875 C-6.45239033 14.52554184 -6.89788019 12.91907825 -7.375 8.625 C-7 5 -7 5 -4.625 2.0625 C-2 0 -2 0 0 0 Z " fill="#FCFCFC" transform="translate(131,17)"/>
<path d="M0 0 C1.05960938 0.00676758 1.05960938 0.00676758 2.140625 0.01367188 C3.88545275 0.02546125 5.630237 0.04339676 7.375 0.0625 C7.375 2.3725 7.375 4.6825 7.375 7.0625 C6.55257812 7.00707031 5.73015625 6.95164062 4.8828125 6.89453125 C-0.67808027 6.86242448 -4.29168009 6.9769652 -8.71484375 10.578125 C-11.22466641 13.24585041 -13.4659009 16.10409559 -15.625 19.0625 C-14.00841174 22.8835268 -11.91261236 26.48189023 -8.625 29.0625 C-5.68070921 29.90701439 -2.86183789 29.9477241 0.1875 29.9375 C0.97576172 29.958125 1.76402344 29.97875 2.57617188 30 C4.50865908 30.04684817 6.44194972 30.05823749 8.375 30.0625 C7.17118552 32.55611571 5.92071278 34.74393083 4.375 37.0625 C-1.35209546 38.02868481 -7.91652625 38.46429023 -13.18359375 35.73828125 C-15.21932911 33.97238996 -16.90548193 32.13484372 -18.625 30.0625 C-19.2334375 29.47597656 -19.841875 28.88945313 -20.46875 28.28515625 C-24.5960764 24.14844956 -24.5960764 24.14844956 -24.7109375 19.8359375 C-23.22861083 14.68511893 -20.41277953 11.92385569 -16.6875 8.1875 C-16.04103516 7.51203125 -15.39457031 6.8365625 -14.72851562 6.140625 C-9.70592429 0.94591994 -7.29970819 -0.08754263 0 0 Z " fill="#FCFCFC" transform="translate(242.625,15.9375)"/>
<path d="M0 0 C7.60315186 -0.96131805 7.60315186 -0.96131805 12 0 C15.81243288 3.14246559 18.61061901 6.67980609 21 11 C21 16.02351337 19.75422882 17.70800505 16.48828125 21.359375 C11.47046077 24.66782807 5.76948934 23.43958014 0 23 C0 15.41 0 7.82 0 0 Z " fill="#020202" transform="translate(51,23)"/>
<path d="M0 0 C0 7.59 0 15.18 0 23 C-11 23 -11 23 -14.48046875 20.375 C-15.41524551 19.27680073 -16.31805827 18.15061737 -17.1875 17 C-17.66251953 16.42765625 -18.13753906 15.8553125 -18.62695312 15.265625 C-19.78052588 13.867355 -20.89467267 12.43671173 -22 11 C-16.61237899 -0.06911225 -12.50524886 -0.82581832 0 0 Z " fill="#020202" transform="translate(369,23)"/>
<path d="M0 0 C5.61 0 11.22 0 17 0 C17.80357143 16.20535714 17.80357143 16.20535714 14.6875 20.5 C11 23 11 23 0 23 C0 15.41 0 7.82 0 0 Z " fill="#020202" transform="translate(275,23)"/>
<path d="M0 0 C2.31 0 4.62 0 7 0 C7 17.16 7 34.32 7 52 C4.69 52 2.38 52 0 52 C0 34.84 0 17.68 0 0 Z " fill="#FFFFFF" transform="translate(256,1)"/>
</svg>
